<?xml version="1.0" encoding="UTF-8" standalone="no"?>
<svg
   xmlns:dc="http://purl.org/dc/elements/1.1/"
   xmlns:cc="http://creativecommons.org/ns#"
   xmlns:rdf="http://www.w3.org/1999/02/22-rdf-syntax-ns#"
   xmlns:svg="http://www.w3.org/2000/svg"
   xmlns="http://www.w3.org/2000/svg"
   xmlns:sodipodi="http://sodipodi.sourceforge.net/DTD/sodipodi-0.dtd"
   xmlns:inkscape="http://www.inkscape.org/namespaces/inkscape"
   width="2500"
   height="2500"
   viewBox="0 0 256 256"
   preserveAspectRatio="xMidYMid"
   version="1.1"
   id="svg18"
   sodipodi:docname="slack.svg"
   inkscape:export-filename="C:\Users\randa\Dropbox (Stuber Lab)\behavior\essentials\tkinter\images\slack_12.png"
   inkscape:export-xdpi="0.46000001"
   inkscape:export-ydpi="0.46000001"
   inkscape:version="0.92.1 r15371">
  <metadata
     id="metadata24">
    <rdf:RDF>
      <cc:Work
         rdf:about="">
        <dc:format>image/svg+xml</dc:format>
        <dc:type
           rdf:resource="http://purl.org/dc/dcmitype/StillImage" />
      </cc:Work>
    </rdf:RDF>
  </metadata>
  <defs
     id="defs22" />
  <sodipodi:namedview
     pagecolor="#ffffff"
     bordercolor="#666666"
     borderopacity="1"
     objecttolerance="10"
     gridtolerance="10"
     guidetolerance="10"
     inkscape:pageopacity="0"
     inkscape:pageshadow="2"
     inkscape:window-width="1920"
     inkscape:window-height="1017"
     id="namedview20"
     showgrid="false"
     inkscape:zoom="0.0944"
     inkscape:cx="-858.05085"
     inkscape:cy="1250"
     inkscape:window-x="-8"
     inkscape:window-y="-8"
     inkscape:window-maximized="1"
     inkscape:current-layer="svg18" />
  <path
     d="M165.964 15.838c-3.89-11.975-16.752-18.528-28.725-14.636-11.975 3.89-18.528 16.752-14.636 28.725l58.947 181.365c4.048 11.187 16.132 17.473 27.732 14.135 12.1-3.483 19.475-16.334 15.614-28.217L165.964 15.838"
     fill="#DFA22F"
     id="path2" />
  <path
     d="M74.626 45.516C70.734 33.542 57.873 26.989 45.9 30.879 33.924 34.77 27.37 47.631 31.263 59.606l58.948 181.366c4.047 11.186 16.132 17.473 27.732 14.132 12.099-3.481 19.474-16.332 15.613-28.217L74.626 45.516"
     fill="#3CB187"
     id="path4" />
  <path
     d="M240.162 166.045c11.975-3.89 18.526-16.75 14.636-28.726-3.89-11.973-16.752-18.527-28.725-14.636L44.708 181.632c-11.187 4.046-17.473 16.13-14.135 27.73 3.483 12.099 16.334 19.475 28.217 15.614l181.372-58.93"
     fill="#CE1E5B"
     id="path6" />
  <path
     d="M82.508 217.27l43.347-14.084-14.086-43.352-43.35 14.09 14.089 43.347"
     fill="#392538"
     id="path8" />
  <path
     d="M173.847 187.591c16.388-5.323 31.62-10.273 43.348-14.084l-14.088-43.36-43.35 14.09 14.09 43.354"
     fill="#BB242A"
     id="path10" />
  <path
     d="M210.484 74.706c11.974-3.89 18.527-16.751 14.637-28.727-3.89-11.973-16.752-18.526-28.727-14.636L15.028 90.293C3.842 94.337-2.445 106.422.896 118.022c3.481 12.098 16.332 19.474 28.217 15.613l181.371-58.93"
     fill="#72C5CD"
     id="path12" />
  <path
     d="M52.822 125.933c11.805-3.836 27.025-8.782 43.354-14.086-5.323-16.39-10.273-31.622-14.084-43.352l-43.36 14.092 14.09 43.346"
     fill="#248C73"
     id="path14" />
  <path
     d="M144.16 96.256l43.356-14.088a546179.21 546179.21 0 0 0-14.089-43.36L130.07 52.9l14.09 43.356"
     fill="#62803A"
     id="path16" />
</svg>
